<svg 
          width="120.00000762939453" 
          height="78.85714721679688" fill="purple" 
          xmlns="http://www.w3.org/2000/svg">
          <path d="M 119.99850396526392 31.268905130858936 L 87.40232966525477 0 L 54.81066635763742 31.268905130858936 L 58.95372864031114 35.245286874833866 L 32.63523289266986 35.245286874833866 L 32.63523289266986 40.83306736222752 L 46.91361947042467 40.83306736222752 L 35.74327914456953 51.555560632300114 L 29.465596007859794 51.555560632300114 L 16.806582349291727 39.41346597464578 L 32.578148667809394 24.27965195550712 L 40.539793516193754 31.92282417143109 L 48.72376519183947 31.92282417143109 L 32.54810747559041 16.402394374747544 L 12.765672956319733 35.37516735890451 L 8.464881807556274 31.247759974160587 L 32.54810747559041 8.143053767448492 L 40.44215161888383 15.72581849234255 L 49.44782531414213 24.37026549645006 L 57.91420620148715 24.37026549645006 L 32.572143179970716 0.04983721707881017 L 0 31.29306904903013 L 8.493423919986512 39.4466953948278 L 0 47.59579359841619 L 32.570639515840114 78.83751374523303 L 55.17570374704996 57.1433388152957 L 64.7747379781371 57.1433388152957 L 87.40383332938538 78.85714721679688 L 120.00000762939452 47.58824439033601 L 111.4990791417806 39.43158776107514 L 119.99850396526392 31.268905130858936 Z M 87.44439558617668 7.9920327354756395 L 111.74093068103043 31.306660388852148 L 107.40108093960626 35.47031134645479 L 87.44439558617668 16.325372173626622 L 67.49221664079705 35.47031134645479 L 63.15687789176467 31.306660388852148 L 87.44439558617668 7.9920327354756395 Z M 103.22648755360855 39.48142728255202 L 87.44439558617668 54.61978327028838 L 71.67133018787028 39.48142728255202 L 87.44439558617668 24.33854776140254 L 103.22648755360855 39.48142728255202 Z M 32.57965233193999 71.01160276228867 L 8.27860853686537 47.69697510891217 L 12.618455986118613 43.53332415130952 L 32.57965233193999 62.678263324137696 L 38.191858650996274 57.29435984726855 L 46.867047141452815 57.29435984726855 L 32.57965233193999 71.01160276228867 Z M 58.94321216008066 51.555560632300114 L 44.04742475777486 51.555560632300114 L 55.22227149167995 40.83306736222752 L 61.8244297610109 40.83306736222752 L 54.79414438956827 47.57917427952904 L 58.94321216008066 51.555560632300114 Z M 111.74243434516104 47.65318232797326 L 87.44439558617668 70.96780998134977 L 63.15687789176467 47.65318232797326 L 67.49221664079705 43.489531370370614 L 87.44439558617668 62.6344613256065 L 107.40108093960626 43.489531370370614 L 111.74243434516104 47.65318232797326 Z" fill="rgb(123.64843547344208,156.18750303983688,153.088541328907)"/>
        </svg>